<?xml version="1.0" encoding="utf-8"?>
<svg xmlns="http://www.w3.org/2000/svg"
	xmlns:xlink="http://www.w3.org/1999/xlink"
	width="17px" height="46px" viewBox="0 0 17 46">
<path fillRule="evenodd" d="M 16.19 2.83C 16.19 2.83 16.19 2.83 16.19 2.82 16.19 2.82 15.41 0.52 15.41 0.52 15.28 0.12 14.84-0.1 14.44 0.04 12.24 0.77 9.99 0.77 8.5 0.77 7.01 0.77 4.76 0.77 2.57 0.04 2.16-0.1 1.72 0.12 1.59 0.52 1.59 0.52 0.82 2.82 0.82 2.82 0.82 2.83 0.82 2.83 0.82 2.83-0.08 4.84-0.72 13.29 1.6 19.44 2.82 22.67 2.63 25.11 2.45 27.48 2.38 28.31 2.32 29.09 2.32 29.9 2.32 32.99 3.85 41.38 4.66 45.38 4.73 45.74 5.04 46 5.41 46 5.41 46 7.73 46 7.73 46 7.73 46 7.73 6.15 7.73 6.15 8.1 6.16 8.38 6.14 8.5 6.14 8.6 6.14 8.81 6.15 9.08 6.15 9.14 6.15 9.21 6.15 9.27 6.15 9.27 6.15 9.27 46 9.27 46 9.27 46 11.59 46 11.59 46 11.96 46 12.28 45.74 12.35 45.38 13.15 41.38 14.68 32.99 14.68 29.9 14.68 29.09 14.62 28.31 14.56 27.48 14.37 25.11 14.18 22.67 15.4 19.44 17.73 13.29 17.08 4.84 16.19 2.83ZM 14.28 3.06C 14.24 3.09 14.2 3.12 14.16 3.15 13.94 3.3 13.73 3.44 13.5 3.56 13.45 3.59 13.4 3.62 13.34 3.64 13.14 3.75 12.93 3.84 12.73 3.93 12.7 3.94 12.67 3.95 12.64 3.97 12.41 4.06 12.18 4.13 11.96 4.2 11.9 4.22 11.85 4.23 11.79 4.25 11.33 4.37 10.89 4.46 10.48 4.51 10.45 4.52 10.41 4.53 10.37 4.53 10.17 4.56 9.97 4.58 9.8 4.59 9.8 4.59 9.79 4.59 9.79 4.59 9.61 4.6 9.43 4.61 9.28 4.61 8.85 4.62 8.58 4.6 8.57 4.6 8.55 4.6 8.52 4.6 8.5 4.6 8.48 4.6 8.46 4.6 8.43 4.6 8.42 4.6 8.13 4.62 7.68 4.61 7.55 4.61 7.41 4.6 7.26 4.59 7.24 4.59 7.21 4.59 7.19 4.59 7.02 4.57 6.84 4.56 6.65 4.53 6.6 4.53 6.55 4.52 6.51 4.51 6.31 4.49 6.1 4.45 5.89 4.41 5.88 4.41 5.88 4.41 5.87 4.41 5.66 4.36 5.43 4.31 5.21 4.25 5.16 4.23 5.1 4.22 5.05 4.2 4.82 4.13 4.59 4.06 4.36 3.97 4.33 3.95 4.31 3.94 4.28 3.93 4.07 3.85 3.86 3.75 3.65 3.64 3.6 3.61 3.55 3.59 3.5 3.56 3.28 3.44 3.06 3.3 2.84 3.15 2.8 3.12 2.77 3.09 2.72 3.06 2.63 2.99 2.54 2.9 2.45 2.82 2.45 2.82 2.82 1.71 2.82 1.71 4.99 2.3 7.07 2.3 8.5 2.3 9.93 2.3 12.01 2.3 14.19 1.71 14.19 1.71 14.56 2.82 14.56 2.82 14.46 2.9 14.38 2.98 14.28 3.06Z" fill="rgb(255,255,255)"/></svg>