<?xml version="1.0" encoding="utf-8"?>
<svg xmlns="http://www.w3.org/2000/svg"
	xmlns:xlink="http://www.w3.org/1999/xlink"
	width="31px" height="34px" viewBox="0 0 31 34">
<path fillRule="evenodd" d="M 30.93 23.74C 30.75 24.49 30.32 25.18 29.58 25.35 29.58 25.35 26.31 26.07 25.11 26.39 23.86 26.73 22.56 26.89 21.38 26.36 20.19 25.83 19.27 24.82 18.83 23.58 18.28 22.03 17.24 20.71 15.86 19.83 15.86 19.83 15.74 19.75 15.74 19.75 15.81 16.88 17.11 14.3 17.62 13.39 17.96 12.79 18.05 12.05 17.86 11.38 17.67 10.71 17.21 10.13 16.61 9.8 16.61 9.8 12.73 7.71 12.73 7.71 13.92 6.06 15.68 3.04 16.09 0.49 16.12 0.3 16.24 0.14 16.42 0.05 16.59-0.04 16.79-0.03 16.96 0.06 16.96 0.06 24.78 4.32 24.78 4.32 24.92 4.4 25.02 4.53 25.07 4.69 25.11 4.84 25.09 5.01 25.01 5.15 24.12 6.73 21.78 11.57 23.45 16.24 24.06 17.93 25.59 20.01 27.31 20.43 27.31 20.43 29.24 20.91 29.24 20.91 30.48 21.22 31.24 22.49 30.93 23.74ZM 15.96 11.93C 16.01 12.09 15.99 12.26 15.91 12.4 15.02 13.98 12.67 18.82 14.35 23.49 14.95 25.18 16.49 27.25 18.21 27.68 18.21 27.68 20.13 28.16 20.13 28.16 21.37 28.46 22.13 29.73 21.83 30.99 21.65 31.73 21.33 32.33 20.48 32.59 16.67 33.73 15.36 34.01 14.18 34.01 13.53 34.01 12.88 33.87 12.27 33.6 11.09 33.07 10.17 32.07 9.73 30.83 9.18 29.28 8.14 27.96 6.76 27.08 6.76 27.08 5.16 26.06 5.16 26.06 6.43 24.61 7.2 22.7 7.2 20.62 7.2 18.02 6 15.7 4.13 14.19 5.31 12.65 6.54 10.47 6.99 7.74 7.02 7.55 7.14 7.38 7.31 7.3 7.4 7.25 7.49 7.23 7.58 7.23 7.67 7.23 7.77 7.26 7.86 7.31 7.86 7.31 15.67 11.57 15.67 11.57 15.81 11.64 15.92 11.78 15.96 11.93ZM 3.47 24.97C 3.47 24.97 2.08 24.08 2.08 24.08 0.88 23.32 0.12 22.03 0.01 20.6-0.09 19.17 0.47 17.78 1.54 16.84 1.64 16.76 1.74 16.68 1.84 16.61 2.06 16.42 2.41 16.11 2.82 15.69 4.28 16.83 5.22 18.62 5.22 20.62 5.22 22.31 4.55 23.85 3.47 24.97Z" fill="rgb(255,255,255)"/></svg>