<?xml version="1.0" encoding="utf-8"?>
<svg xmlns="http://www.w3.org/2000/svg"
	xmlns:xlink="http://www.w3.org/1999/xlink"
	width="30px" height="24px" viewBox="0 0 30 24">
<path fillRule="evenodd" d="M 29.31 11.74C 29.31 11.74 29.91 0.13 29.91 0.13 29.91 0.13 27.46-0 27.46-0 27.46-0 26.86 11.41 26.86 11.41 24.77 11.31 21.72 11.54 19.32 13.29 16.83 15.1 16 18.28 15.74 20.48 15.74 20.48 14.46 20.48 14.46 20.48 14.2 18.28 13.37 15.1 10.88 13.29 8.48 11.54 5.43 11.31 3.34 11.41 3.34 11.41 2.45-0 2.45-0 2.45-0-0 0.19-0 0.19-0 0.19 0.89 11.73 0.89 11.73 0.78 12.14-1.16 19.32 1.99 21.92 6.47 25.61 13.32 23.34 14.42 22.94 14.42 22.94 15.78 22.94 15.78 22.94 16.88 23.34 23.73 25.61 28.21 21.92 31.34 19.34 29.45 12.24 29.31 11.74Z" fill="rgb(255,255,255)"/></svg>