<?xml version="1.0" encoding="utf-8"?>
<svg xmlns="http://www.w3.org/2000/svg"
	xmlns:xlink="http://www.w3.org/1999/xlink"
	width="23px" height="43px" viewBox="0 0 23 43">
<path fillRule="evenodd" d="M 22.04 16.73C 21.58 17.36 21.01 17.87 20.47 18.37 20.47 18.37 20.4 18.43 20.4 18.43 18.74 19.94 17.14 21.59 15.58 23.18 15.58 23.18 15.39 23.38 15.39 23.38 14.99 23.78 14.6 24.19 14.2 24.59 13.23 25.56 12.24 26.57 11.31 27.61 9.9 29.19 8.69 30.84 7.72 32.52 6.83 34.07 5.76 36.13 5.45 38.3 5.3 39.39 5.36 40.42 5.64 41.36 5.71 41.62 5.7 42 5.45 42.33 5.11 42.78 4.49 43 3.55 43 3.14 43 2.54 42.85 1.97 42.16 0.93 40.89 0.5 38.27 0.72 37.13 0.85 36.44 1.25 34.06 0.74 32.47 0.42 31.45 0.13 30.52 0.61 29.74 1.07 29 2.04 28.78 2.73 28.67 4.54 28.4 6.99 25.27 8.56 21.24 8.56 21.24 8.81 20.58 8.81 20.58 10.23 16.9 10.95 15.05 13.88 13.68 13.96 13.64 14.15 13.55 14.16 13.44 14.19 13.19 13.84 12.42 12.3 11.17 11.87 10.82 11.42 10.5 10.93 10.16 10.5 9.86 10.08 9.56 9.67 9.23 8.84 8.58 8.05 7.88 7.29 7.17 7.29 7.17 19.82 7.17 19.82 7.17 21.16 9.31 22.35 11.28 22.62 11.89 23.29 13.39 23.06 15.34 22.04 16.73ZM 1.42 2.25C 1.37 2.22 1.25 2.15 0.24 1.25 0.02 1.06-0.06 0.74 0.05 0.46 0.15 0.18 0.41-0 0.71-0 0.71-0 14.89-0 14.89-0 15.13-0 15.35 0.12 15.48 0.32 15.61 0.53 17.25 3.07 18.92 5.73 18.92 5.73 5.76 5.73 5.76 5.73 4.4 4.46 3 3.21 1.42 2.25Z" fill="rgb(255,255,255)"/></svg>