<?xml version="1.0" encoding="utf-8"?>
<svg xmlns="http://www.w3.org/2000/svg"
	xmlns:xlink="http://www.w3.org/1999/xlink"
	width="15px" height="8px" viewBox="0 0 15 8">
<path fillRule="evenodd" d="M 14.82 0.14C 14.61-0.07 14.27-0.07 14.07 0.14 14.07 0.14 7.49 6.75 7.49 6.75 7.49 6.75 0.9 0.14 0.9 0.14 0.7-0.07 0.36-0.07 0.15 0.14-0.05 0.35-0.05 0.68 0.15 0.89 0.15 0.89 7.1 7.86 7.1 7.86 7.21 7.96 7.34 8.01 7.48 8.01 7.61 8.01 7.75 7.96 7.85 7.86 7.85 7.86 14.8 0.89 14.8 0.89 15.02 0.68 15.02 0.35 14.82 0.14Z" fill="rgb(217,217,217)"/></svg>