<?xml version="1.0" encoding="utf-8"?>
<svg xmlns="http://www.w3.org/2000/svg"
	xmlns:xlink="http://www.w3.org/1999/xlink"
	width="49px" height="91px" viewBox="0 0 49 91">
<path fillRule="evenodd" d="M 48.06 0.9C 49.3 2.15 49.3 4.19 48.06 5.45 48.06 5.45 8.54 45.44 8.54 45.44 8.54 45.44 48.06 85.51 48.06 85.51 49.3 86.77 49.3 88.8 48.06 90.06 46.82 91.31 44.81 91.31 43.57 90.06 43.57 90.06 1.89 47.79 1.89 47.79 1.27 47.17 0.96 46.38 0.96 45.52 0.96 44.73 1.27 43.87 1.89 43.24 1.89 43.24 43.57 0.98 43.57 0.98 44.81-0.36 46.82-0.36 48.06 0.9Z" fill="rgb(217,217,217)"/></svg>